<svg width="104" height="32" viewBox="0 0 104 32" fill="none" xmlns="http://www.w3.org/2000/svg">
<rect width="104" height="32" rx="3" fill="#2D2D2F"/>
<path d="M37.924 21.944C37.204 22.688 36.376 23.06 35.44 23.06C34.872 23.06 34.344 22.944 33.856 22.712C33.368 22.472 32.944 22.152 32.584 21.752C32.224 21.352 31.94 20.888 31.732 20.36C31.532 19.832 31.432 19.28 31.432 18.704C31.432 18.128 31.532 17.58 31.732 17.06C31.94 16.54 32.224 16.084 32.584 15.692C32.944 15.3 33.372 14.992 33.868 14.768C34.364 14.536 34.904 14.42 35.488 14.42C36.304 14.42 36.988 14.592 37.54 14.936C38.092 15.272 38.508 15.72 38.788 16.28L37.756 17.024C37.524 16.56 37.204 16.212 36.796 15.98C36.388 15.748 35.94 15.632 35.452 15.632C35.052 15.632 34.688 15.72 34.36 15.896C34.032 16.064 33.752 16.292 33.52 16.58C33.288 16.86 33.108 17.188 32.98 17.564C32.86 17.94 32.8 18.332 32.8 18.74C32.8 19.172 32.868 19.576 33.004 19.952C33.148 20.328 33.34 20.656 33.58 20.936C33.828 21.216 34.12 21.44 34.456 21.608C34.792 21.768 35.156 21.848 35.548 21.848C35.98 21.848 36.392 21.748 36.784 21.548C37.184 21.348 37.564 21.032 37.924 20.6V19.688H36.136V18.692H39.052V23H37.924V21.944Z" fill="white"/>
<path d="M43.237 23.12C42.741 23.12 42.293 23.032 41.893 22.856C41.501 22.68 41.165 22.444 40.885 22.148C40.605 21.852 40.389 21.508 40.237 21.116C40.085 20.716 40.009 20.3 40.009 19.868C40.009 19.436 40.085 19.024 40.237 18.632C40.389 18.232 40.605 17.884 40.885 17.588C41.173 17.292 41.513 17.056 41.905 16.88C42.305 16.704 42.749 16.616 43.237 16.616C43.725 16.616 44.165 16.704 44.557 16.88C44.957 17.056 45.297 17.292 45.577 17.588C45.865 17.884 46.085 18.232 46.237 18.632C46.389 19.024 46.465 19.436 46.465 19.868C46.465 20.3 46.389 20.716 46.237 21.116C46.085 21.508 45.865 21.852 45.577 22.148C45.297 22.444 44.957 22.68 44.557 22.856C44.165 23.032 43.725 23.12 43.237 23.12ZM41.365 19.88C41.365 20.184 41.413 20.464 41.509 20.72C41.605 20.976 41.737 21.2 41.905 21.392C42.073 21.576 42.269 21.724 42.493 21.836C42.725 21.94 42.973 21.992 43.237 21.992C43.501 21.992 43.745 21.94 43.969 21.836C44.201 21.724 44.401 21.572 44.569 21.38C44.737 21.188 44.869 20.964 44.965 20.708C45.061 20.452 45.109 20.172 45.109 19.868C45.109 19.572 45.061 19.296 44.965 19.04C44.869 18.776 44.737 18.548 44.569 18.356C44.401 18.164 44.201 18.016 43.969 17.912C43.745 17.8 43.501 17.744 43.237 17.744C42.981 17.744 42.737 17.8 42.505 17.912C42.281 18.024 42.085 18.176 41.917 18.368C41.749 18.56 41.613 18.788 41.509 19.052C41.413 19.308 41.365 19.584 41.365 19.88Z" fill="white"/>
<path d="M50.4558 23.12C49.9598 23.12 49.5118 23.032 49.1118 22.856C48.7198 22.68 48.3838 22.444 48.1038 22.148C47.8238 21.852 47.6078 21.508 47.4558 21.116C47.3038 20.716 47.2278 20.3 47.2278 19.868C47.2278 19.436 47.3038 19.024 47.4558 18.632C47.6078 18.232 47.8238 17.884 48.1038 17.588C48.3918 17.292 48.7318 17.056 49.1238 16.88C49.5238 16.704 49.9678 16.616 50.4558 16.616C50.9438 16.616 51.3838 16.704 51.7758 16.88C52.1758 17.056 52.5158 17.292 52.7958 17.588C53.0838 17.884 53.3038 18.232 53.4558 18.632C53.6078 19.024 53.6838 19.436 53.6838 19.868C53.6838 20.3 53.6078 20.716 53.4558 21.116C53.3038 21.508 53.0838 21.852 52.7958 22.148C52.5158 22.444 52.1758 22.68 51.7758 22.856C51.3838 23.032 50.9438 23.12 50.4558 23.12ZM48.5838 19.88C48.5838 20.184 48.6318 20.464 48.7278 20.72C48.8238 20.976 48.9558 21.2 49.1238 21.392C49.2918 21.576 49.4878 21.724 49.7118 21.836C49.9438 21.94 50.1918 21.992 50.4558 21.992C50.7198 21.992 50.9638 21.94 51.1878 21.836C51.4198 21.724 51.6198 21.572 51.7878 21.38C51.9558 21.188 52.0878 20.964 52.1838 20.708C52.2798 20.452 52.3278 20.172 52.3278 19.868C52.3278 19.572 52.2798 19.296 52.1838 19.04C52.0878 18.776 51.9558 18.548 51.7878 18.356C51.6198 18.164 51.4198 18.016 51.1878 17.912C50.9638 17.8 50.7198 17.744 50.4558 17.744C50.1998 17.744 49.9558 17.8 49.7238 17.912C49.4998 18.024 49.3038 18.176 49.1358 18.368C48.9678 18.56 48.8318 18.788 48.7278 19.052C48.6318 19.308 48.5838 19.584 48.5838 19.88Z" fill="white"/>
<path d="M57.3385 23.06C56.9145 23.06 56.5265 22.976 56.1745 22.808C55.8225 22.632 55.5185 22.396 55.2625 22.1C55.0145 21.804 54.8185 21.464 54.6745 21.08C54.5385 20.696 54.4705 20.292 54.4705 19.868C54.4705 19.42 54.5425 19 54.6865 18.608C54.8305 18.208 55.0305 17.864 55.2865 17.576C55.5425 17.28 55.8465 17.048 56.1985 16.88C56.5585 16.704 56.9545 16.616 57.3865 16.616C57.8905 16.616 58.3305 16.736 58.7065 16.976C59.0905 17.216 59.4065 17.528 59.6545 17.912V16.724H60.8185V22.82C60.8185 23.276 60.7345 23.68 60.5665 24.032C60.3985 24.384 60.1625 24.68 59.8585 24.92C59.5625 25.168 59.2105 25.356 58.8025 25.484C58.3945 25.612 57.9545 25.676 57.4825 25.676C56.7865 25.676 56.2065 25.556 55.7425 25.316C55.2865 25.084 54.9025 24.756 54.5905 24.332L55.3345 23.636C55.5745 23.972 55.8825 24.228 56.2585 24.404C56.6425 24.58 57.0505 24.668 57.4825 24.668C57.7545 24.668 58.0105 24.632 58.2505 24.56C58.4985 24.488 58.7145 24.376 58.8985 24.224C59.0825 24.072 59.2265 23.88 59.3305 23.648C59.4425 23.416 59.4985 23.14 59.4985 22.82V21.86C59.2745 22.244 58.9665 22.54 58.5745 22.748C58.1825 22.956 57.7705 23.06 57.3385 23.06ZM57.7705 21.992C57.9705 21.992 58.1625 21.96 58.3465 21.896C58.5305 21.824 58.6985 21.732 58.8505 21.62C59.0105 21.5 59.1465 21.368 59.2585 21.224C59.3705 21.072 59.4505 20.912 59.4985 20.744V19.1C59.4185 18.9 59.3145 18.72 59.1865 18.56C59.0585 18.392 58.9105 18.248 58.7425 18.128C58.5825 18.008 58.4105 17.916 58.2265 17.852C58.0425 17.78 57.8585 17.744 57.6745 17.744C57.3865 17.744 57.1265 17.808 56.8945 17.936C56.6705 18.056 56.4785 18.22 56.3185 18.428C56.1585 18.628 56.0345 18.856 55.9465 19.112C55.8585 19.368 55.8145 19.632 55.8145 19.904C55.8145 20.192 55.8625 20.464 55.9585 20.72C56.0625 20.968 56.2025 21.188 56.3785 21.38C56.5545 21.564 56.7585 21.712 56.9905 21.824C57.2305 21.936 57.4905 21.992 57.7705 21.992Z" fill="white"/>
<path d="M62.4134 14.24H63.7334V21.188C63.7334 21.42 63.7934 21.604 63.9134 21.74C64.0334 21.868 64.2014 21.932 64.4174 21.932C64.5054 21.932 64.6054 21.916 64.7174 21.884C64.8374 21.852 64.9494 21.816 65.0534 21.776L65.2454 22.808C65.0534 22.896 64.8254 22.964 64.5614 23.012C64.2974 23.068 64.0614 23.096 63.8534 23.096C63.3974 23.096 63.0414 22.972 62.7854 22.724C62.5374 22.476 62.4134 22.124 62.4134 21.668V14.24Z" fill="white"/>
<path d="M68.8548 23.12C68.3668 23.12 67.9228 23.036 67.5228 22.868C67.1228 22.692 66.7788 22.456 66.4908 22.16C66.2108 21.864 65.9908 21.52 65.8308 21.128C65.6788 20.736 65.6028 20.32 65.6028 19.88C65.6028 19.44 65.6788 19.024 65.8308 18.632C65.9908 18.232 66.2108 17.884 66.4908 17.588C66.7788 17.284 67.1228 17.048 67.5228 16.88C67.9228 16.704 68.3708 16.616 68.8668 16.616C69.3548 16.616 69.7948 16.704 70.1868 16.88C70.5868 17.056 70.9268 17.292 71.2068 17.588C71.4868 17.876 71.6988 18.216 71.8428 18.608C71.9948 18.992 72.0708 19.396 72.0708 19.82C72.0708 19.916 72.0668 20.008 72.0588 20.096C72.0508 20.176 72.0428 20.244 72.0348 20.3H67.0068C67.0308 20.58 67.0948 20.832 67.1988 21.056C67.3108 21.28 67.4508 21.476 67.6188 21.644C67.7948 21.804 67.9908 21.928 68.2068 22.016C68.4308 22.104 68.6628 22.148 68.9028 22.148C69.0788 22.148 69.2508 22.128 69.4188 22.088C69.5948 22.04 69.7548 21.976 69.8988 21.896C70.0428 21.808 70.1708 21.704 70.2828 21.584C70.3948 21.464 70.4828 21.332 70.5468 21.188L71.6748 21.512C71.4588 21.984 71.0988 22.372 70.5948 22.676C70.0988 22.972 69.5188 23.12 68.8548 23.12ZM70.7628 19.388C70.7388 19.124 70.6708 18.88 70.5588 18.656C70.4548 18.432 70.3188 18.244 70.1508 18.092C69.9828 17.932 69.7868 17.808 69.5628 17.72C69.3388 17.632 69.1028 17.588 68.8548 17.588C68.6068 17.588 68.3708 17.632 68.1468 17.72C67.9308 17.808 67.7388 17.932 67.5708 18.092C67.4028 18.244 67.2668 18.432 67.1628 18.656C67.0588 18.88 66.9948 19.124 66.9708 19.388H70.7628Z" fill="white"/>
<path d="M76.2803 23V14.48H79.8563C80.2403 14.48 80.5923 14.56 80.9123 14.72C81.2403 14.88 81.5203 15.092 81.7523 15.356C81.9843 15.612 82.1643 15.908 82.2923 16.244C82.4283 16.572 82.4963 16.908 82.4963 17.252C82.4963 17.612 82.4323 17.96 82.3043 18.296C82.1843 18.624 82.0123 18.92 81.7883 19.184C81.5643 19.44 81.2923 19.648 80.9723 19.808C80.6603 19.96 80.3123 20.036 79.9283 20.036H77.6243V23H76.2803ZM77.6243 18.848H79.8443C80.0363 18.848 80.2083 18.808 80.3603 18.728C80.5203 18.648 80.6563 18.536 80.7683 18.392C80.8803 18.248 80.9683 18.08 81.0323 17.888C81.0963 17.696 81.1283 17.484 81.1283 17.252C81.1283 17.012 81.0923 16.796 81.0203 16.604C80.9483 16.412 80.8483 16.248 80.7203 16.112C80.5923 15.968 80.4443 15.86 80.2763 15.788C80.1163 15.708 79.9483 15.668 79.7723 15.668H77.6243V18.848Z" fill="white"/>
<path d="M83.6009 14.24H84.9209V21.188C84.9209 21.42 84.9809 21.604 85.1009 21.74C85.2209 21.868 85.3889 21.932 85.6049 21.932C85.6929 21.932 85.7929 21.916 85.9049 21.884C86.0249 21.852 86.1369 21.816 86.2409 21.776L86.4329 22.808C86.2409 22.896 86.0129 22.964 85.7489 23.012C85.4849 23.068 85.2489 23.096 85.0409 23.096C84.5849 23.096 84.2289 22.972 83.9729 22.724C83.7249 22.476 83.6009 22.124 83.6009 21.668V14.24Z" fill="white"/>
<path d="M88.8663 23.12C88.5623 23.12 88.2783 23.072 88.0143 22.976C87.7583 22.872 87.5343 22.732 87.3423 22.556C87.1583 22.38 87.0103 22.172 86.8983 21.932C86.7943 21.692 86.7423 21.432 86.7423 21.152C86.7423 20.856 86.8063 20.588 86.9343 20.348C87.0623 20.108 87.2423 19.9 87.4743 19.724C87.7143 19.548 87.9943 19.412 88.3143 19.316C88.6423 19.22 89.0023 19.172 89.3943 19.172C89.6903 19.172 89.9823 19.2 90.2703 19.256C90.5583 19.304 90.8183 19.372 91.0503 19.46V19.028C91.0503 18.564 90.9183 18.204 90.6543 17.948C90.3903 17.684 90.0103 17.552 89.5143 17.552C89.1783 17.552 88.8463 17.616 88.5183 17.744C88.1983 17.864 87.8663 18.04 87.5223 18.272L87.1143 17.432C87.9223 16.888 88.7623 16.616 89.6343 16.616C90.4983 16.616 91.1703 16.836 91.6503 17.276C92.1303 17.716 92.3703 18.348 92.3703 19.172V21.44C92.3703 21.72 92.4863 21.864 92.7183 21.872V23C92.5903 23.024 92.4783 23.04 92.3823 23.048C92.2943 23.056 92.2063 23.06 92.1183 23.06C91.8623 23.06 91.6623 22.996 91.5183 22.868C91.3823 22.74 91.2983 22.576 91.2663 22.376L91.2303 21.98C90.9503 22.348 90.6023 22.632 90.1863 22.832C89.7783 23.024 89.3383 23.12 88.8663 23.12ZM89.2263 22.148C89.5463 22.148 89.8463 22.092 90.1263 21.98C90.4143 21.86 90.6383 21.696 90.7983 21.488C90.9663 21.344 91.0503 21.192 91.0503 21.032V20.204C90.8263 20.116 90.5863 20.048 90.3303 20C90.0823 19.952 89.8383 19.928 89.5983 19.928C89.1263 19.928 88.7383 20.032 88.4343 20.24C88.1383 20.44 87.9903 20.708 87.9903 21.044C87.9903 21.356 88.1063 21.62 88.3383 21.836C88.5703 22.044 88.8663 22.148 89.2263 22.148Z" fill="white"/>
<path d="M94.0354 24.476C94.1553 24.5 94.2714 24.52 94.3834 24.536C94.5033 24.552 94.5994 24.56 94.6714 24.56C94.7754 24.56 94.8634 24.536 94.9354 24.488C95.0154 24.448 95.0954 24.372 95.1754 24.26C95.2554 24.148 95.3354 23.988 95.4154 23.78C95.5033 23.58 95.6033 23.32 95.7153 23L93.1353 16.724H94.4914L96.4353 21.836L98.1634 16.724H99.4114L96.5674 24.452C96.4394 24.812 96.2153 25.112 95.8953 25.352C95.5834 25.6 95.1793 25.724 94.6833 25.724C94.5873 25.724 94.4874 25.716 94.3834 25.7C94.2794 25.692 94.1633 25.668 94.0354 25.628V24.476Z" fill="white"/>
<path d="M7 24.632V7.37C7 6.768 7.35 6.247 7.856 6L17.841 15.998L7.852 26C7.59625 25.8745 7.38084 25.6798 7.23023 25.4379C7.07962 25.1961 6.99985 24.9169 7 24.632ZM21.009 19.17L10.09 25.482L18.7 16.86L21.008 19.17H21.009ZM24.403 14.79C24.588 14.9309 24.7383 15.1123 24.8423 15.3204C24.9462 15.5284 25.0011 15.7575 25.0026 15.9901C25.0041 16.2226 24.9523 16.4524 24.8512 16.6619C24.75 16.8713 24.6022 17.0547 24.419 17.198L22.099 18.539L19.563 16L22.099 13.46L24.404 14.792L24.403 14.79ZM10.097 6.52L21.007 12.828L18.702 15.136L10.097 6.521V6.52Z" fill="white"/>
<path d="M32.108 10.406H32.204C32.324 10.398 32.432 10.362 32.528 10.298C32.628 10.234 32.716 10.114 32.792 9.93801C32.872 9.75801 32.94 9.50801 32.996 9.18801C33.056 8.86801 33.108 8.44601 33.152 7.92201L33.248 6.74001H35.66V10.406H36.308V12.092H35.684V11H32.726V12.092H32.108V10.406ZM34.988 10.406V7.33401H33.872L33.812 8.01801C33.784 8.33801 33.752 8.62601 33.716 8.88201C33.68 9.13401 33.636 9.35801 33.584 9.55401C33.532 9.74601 33.474 9.91201 33.41 10.052C33.346 10.192 33.274 10.31 33.194 10.406H34.988Z" fill="white"/>
<path d="M38.7047 11.03C38.4007 11.03 38.1227 10.97 37.8707 10.85C37.6227 10.726 37.4087 10.564 37.2287 10.364C37.0487 10.16 36.9087 9.92801 36.8087 9.66801C36.7127 9.40801 36.6647 9.14201 36.6647 8.87001C36.6647 8.58601 36.7167 8.31401 36.8207 8.05401C36.9247 7.79401 37.0667 7.56401 37.2467 7.36401C37.4307 7.16401 37.6467 7.00601 37.8947 6.89001C38.1467 6.77001 38.4207 6.71001 38.7167 6.71001C39.0207 6.71001 39.2967 6.77401 39.5447 6.90201C39.7967 7.02601 40.0107 7.19001 40.1867 7.39401C40.3667 7.59801 40.5047 7.83001 40.6007 8.09001C40.7007 8.34601 40.7507 8.60801 40.7507 8.87601C40.7507 9.16001 40.6987 9.43201 40.5947 9.69201C40.4947 9.95201 40.3527 10.182 40.1687 10.382C39.9847 10.578 39.7667 10.736 39.5147 10.856C39.2667 10.972 38.9967 11.03 38.7047 11.03ZM37.3487 8.87001C37.3487 9.07001 37.3807 9.26401 37.4447 9.45201C37.5087 9.64001 37.5987 9.80601 37.7147 9.95001C37.8347 10.094 37.9787 10.21 38.1467 10.298C38.3147 10.382 38.5027 10.424 38.7107 10.424C38.9267 10.424 39.1167 10.38 39.2807 10.292C39.4487 10.2 39.5907 10.08 39.7067 9.93201C39.8227 9.78401 39.9107 9.61801 39.9707 9.43401C40.0307 9.25001 40.0607 9.06201 40.0607 8.87001C40.0607 8.66601 40.0287 8.47201 39.9647 8.28801C39.9007 8.10001 39.8087 7.93601 39.6887 7.79601C39.5727 7.65201 39.4307 7.53801 39.2627 7.45401C39.0987 7.36601 38.9147 7.32201 38.7107 7.32201C38.4947 7.32201 38.3027 7.36801 38.1347 7.46001C37.9667 7.54801 37.8247 7.66401 37.7087 7.80801C37.5927 7.95201 37.5027 8.11801 37.4387 8.30601C37.3787 8.49001 37.3487 8.67801 37.3487 8.87001Z" fill="white"/>
<path d="M41.2304 8.84001C41.2304 8.58401 41.2764 8.33001 41.3684 8.07801C41.4604 7.82201 41.5944 7.59401 41.7704 7.39401C41.9504 7.19001 42.1684 7.02601 42.4244 6.90201C42.6804 6.77801 42.9704 6.71601 43.2944 6.71601C43.6824 6.71601 44.0144 6.80201 44.2904 6.97401C44.5664 7.14601 44.7744 7.37001 44.9144 7.64601L44.3864 8.00001C44.3264 7.87201 44.2544 7.76401 44.1704 7.67601C44.0864 7.58801 43.9944 7.51801 43.8944 7.46601C43.7944 7.41401 43.6904 7.37801 43.5824 7.35801C43.4744 7.33401 43.3704 7.32201 43.2704 7.32201C43.0464 7.32201 42.8504 7.36801 42.6824 7.46001C42.5144 7.54801 42.3724 7.66601 42.2564 7.81401C42.1444 7.96201 42.0584 8.12801 41.9984 8.31201C41.9424 8.49601 41.9144 8.68001 41.9144 8.86401C41.9144 9.07201 41.9484 9.27001 42.0164 9.45801C42.0844 9.64601 42.1784 9.81201 42.2984 9.95601C42.4224 10.1 42.5684 10.216 42.7364 10.304C42.9044 10.388 43.0884 10.43 43.2884 10.43C43.3924 10.43 43.4984 10.418 43.6064 10.394C43.7184 10.366 43.8244 10.324 43.9244 10.268C44.0284 10.208 44.1224 10.134 44.2064 10.046C44.2944 9.95801 44.3664 9.85201 44.4224 9.72801L44.9804 10.046C44.9124 10.206 44.8164 10.348 44.6924 10.472C44.5684 10.592 44.4284 10.694 44.2724 10.778C44.1164 10.862 43.9504 10.926 43.7744 10.97C43.6024 11.014 43.4324 11.036 43.2644 11.036C42.9644 11.036 42.6904 10.972 42.4424 10.844C42.1944 10.716 41.9804 10.55 41.8004 10.346C41.6204 10.138 41.4804 9.90401 41.3804 9.64401C41.2804 9.38001 41.2304 9.11201 41.2304 8.84001Z" fill="white"/>
<path d="M48.7411 7.33401H47.3251V11H46.6471V7.33401H45.2251V6.74001H48.7411V7.33401Z" fill="white"/>
<path d="M49.9724 11.042C49.8924 11.042 49.7984 11.032 49.6904 11.012C49.5864 10.996 49.4984 10.966 49.4264 10.922L49.4804 10.358C49.5364 10.382 49.6044 10.404 49.6844 10.424C49.7644 10.444 49.8424 10.454 49.9184 10.454C50.0464 10.454 50.1584 10.418 50.2544 10.346C50.3504 10.27 50.4404 10.126 50.5244 9.91401L48.9704 6.74001H49.6964L50.8364 9.20601L51.9104 6.74001H52.6184L51.1184 9.98001C51.0304 10.172 50.9444 10.336 50.8604 10.472C50.7804 10.604 50.6944 10.714 50.6024 10.802C50.5144 10.886 50.4184 10.948 50.3144 10.988C50.2144 11.024 50.1004 11.042 49.9724 11.042Z" fill="white"/>
<path d="M53.2178 6.74001H56.6738V11H55.9958V7.33401H53.8958V11H53.2178V6.74001Z" fill="white"/>
<path d="M61.2172 6.74001V11H60.5392V9.12201H58.3912V11H57.7192V6.74001H58.3912V8.52201H60.5392V6.74001H61.2172Z" fill="white"/>
<path d="M64.0315 11.03C63.7275 11.03 63.4495 10.97 63.1975 10.85C62.9495 10.726 62.7355 10.564 62.5555 10.364C62.3755 10.16 62.2355 9.92801 62.1355 9.66801C62.0395 9.40801 61.9915 9.14201 61.9915 8.87001C61.9915 8.58601 62.0435 8.31401 62.1475 8.05401C62.2515 7.79401 62.3935 7.56401 62.5735 7.36401C62.7575 7.16401 62.9735 7.00601 63.2215 6.89001C63.4735 6.77001 63.7475 6.71001 64.0435 6.71001C64.3475 6.71001 64.6235 6.77401 64.8715 6.90201C65.1235 7.02601 65.3375 7.19001 65.5135 7.39401C65.6935 7.59801 65.8315 7.83001 65.9275 8.09001C66.0275 8.34601 66.0775 8.60801 66.0775 8.87601C66.0775 9.16001 66.0255 9.43201 65.9215 9.69201C65.8215 9.95201 65.6795 10.182 65.4955 10.382C65.3115 10.578 65.0935 10.736 64.8415 10.856C64.5935 10.972 64.3235 11.03 64.0315 11.03ZM62.6755 8.87001C62.6755 9.07001 62.7075 9.26401 62.7715 9.45201C62.8355 9.64001 62.9255 9.80601 63.0415 9.95001C63.1615 10.094 63.3055 10.21 63.4735 10.298C63.6415 10.382 63.8295 10.424 64.0375 10.424C64.2535 10.424 64.4435 10.38 64.6075 10.292C64.7755 10.2 64.9175 10.08 65.0335 9.93201C65.1495 9.78401 65.2375 9.61801 65.2975 9.43401C65.3575 9.25001 65.3875 9.06201 65.3875 8.87001C65.3875 8.66601 65.3555 8.47201 65.2915 8.28801C65.2275 8.10001 65.1355 7.93601 65.0155 7.79601C64.8995 7.65201 64.7575 7.53801 64.5895 7.45401C64.4255 7.36601 64.2415 7.32201 64.0375 7.32201C63.8215 7.32201 63.6295 7.36801 63.4615 7.46001C63.2935 7.54801 63.1515 7.66401 63.0355 7.80801C62.9195 7.95201 62.8295 8.11801 62.7655 8.30601C62.7055 8.49001 62.6755 8.67801 62.6755 8.87001Z" fill="white"/>
<path d="M71.6396 9.90201C71.6396 10.074 71.6036 10.228 71.5316 10.364C71.4636 10.5 71.3696 10.616 71.2496 10.712C71.1336 10.804 70.9956 10.876 70.8356 10.928C70.6756 10.976 70.5056 11 70.3256 11H68.2916V6.74001H70.4876C70.6356 6.74001 70.7696 6.77201 70.8896 6.83601C71.0096 6.90001 71.1116 6.98401 71.1956 7.08801C71.2796 7.18801 71.3436 7.30401 71.3876 7.43601C71.4356 7.56401 71.4596 7.69401 71.4596 7.82601C71.4596 8.03401 71.4056 8.23001 71.2976 8.41401C71.1936 8.59401 71.0436 8.72801 70.8476 8.81601C71.0916 8.88801 71.2836 9.02001 71.4236 9.21201C71.5676 9.40001 71.6396 9.63001 71.6396 9.90201ZM70.9496 9.77601C70.9496 9.68801 70.9336 9.60401 70.9016 9.52401C70.8736 9.44401 70.8336 9.37401 70.7816 9.31401C70.7336 9.25401 70.6736 9.20601 70.6016 9.17001C70.5296 9.13401 70.4516 9.11601 70.3676 9.11601H68.9636V10.418H70.3256C70.4136 10.418 70.4956 10.402 70.5716 10.37C70.6476 10.334 70.7136 10.288 70.7696 10.232C70.8256 10.172 70.8696 10.104 70.9016 10.028C70.9336 9.94801 70.9496 9.86401 70.9496 9.77601ZM68.9636 7.32201V8.57601H70.1996C70.2836 8.57601 70.3596 8.56001 70.4276 8.52801C70.4996 8.49601 70.5616 8.45401 70.6136 8.40201C70.6696 8.34601 70.7116 8.28001 70.7396 8.20401C70.7716 8.12801 70.7876 8.04401 70.7876 7.95201C70.7876 7.76801 70.7356 7.61801 70.6316 7.50201C70.5276 7.38201 70.3956 7.32201 70.2356 7.32201H68.9636Z" fill="white"/>
</svg>
